<!--?xml version="1.0" encoding="utf-8"?-->
<!-- Generator: Adobe Illustrator 18.1.1, SVG Export Plug-In . SVG Version: 6.00 Build 0)  -->

<svg version="1.1" id="_x32_" xmlns="http://www.w3.org/2000/svg" xmlns:xlink="http://www.w3.org/1999/xlink" x="0px" y="0px" viewBox="0 0 512 512" style="width: 32px; height: 32px; opacity: 1;" xml:space="preserve">
<style type="text/css">
	.st0{fill:#4B4B4B;}
</style>
<g>
	<path class="st0" d="M106.68,42.432c0-9.958-8.074-18.032-18.032-18.032h-6.62c-9.957,0-18.032,8.074-18.032,18.032V92.31h42.684
		V42.432z" style="fill: rgb(75, 75, 75);"></path>
	<path class="st0" d="M192.011,42.432c0-9.958-8.074-18.032-18.031-18.032h-6.62c-9.94,0-18.013,8.074-18.013,18.032V92.31h42.665
		V42.432z" style="fill: rgb(75, 75, 75);"></path>
	<path class="st0" d="M277.342,42.432c0-9.958-8.074-18.032-18.031-18.032h-6.62c-9.94,0-18.014,8.074-18.014,18.032V92.31h42.666
		V42.432z" style="fill: rgb(75, 75, 75);"></path>
	<path class="st0" d="M362.672,42.432c0-9.958-8.074-18.032-18.013-18.032h-6.639c-9.939,0-18.013,8.074-18.013,18.032V92.31h42.665
		V42.432z" style="fill: rgb(75, 75, 75);"></path>
	<path class="st0" d="M63.997,469.568c0,9.958,8.075,18.032,18.032,18.032h6.62c9.958,0,18.032-8.074,18.032-18.032v-49.86H63.997
		V469.568z" style="fill: rgb(75, 75, 75);"></path>
	<path class="st0" d="M149.346,469.568c0,9.958,8.074,18.032,18.013,18.032h6.62c9.958,0,18.031-8.074,18.031-18.032v-49.86h-42.665
		V469.568z" style="fill: rgb(75, 75, 75);"></path>
	<path class="st0" d="M234.676,469.568c0,9.958,8.074,18.032,18.014,18.032h6.62c9.958,0,18.031-8.074,18.031-18.032v-49.86h-42.666
		V469.568z" style="fill: rgb(75, 75, 75);"></path>
	<path class="st0" d="M320.006,469.568c0,9.958,8.074,18.032,18.013,18.032h6.639c9.94,0,18.013-8.074,18.013-18.032v-49.86h-42.665
		V469.568z" style="fill: rgb(75, 75, 75);"></path>
	<path class="st0" d="M448.002,42.432c0-9.958-8.056-18.032-18.032-18.032h-6.62c-9.939,0-18.013,8.074-18.013,18.032V92.31h42.665
		V42.432z" style="fill: rgb(75, 75, 75);"></path>
	<rect y="118.971" class="st0" width="512" height="274.076" style="fill: rgb(75, 75, 75);"></rect>
	<path class="st0" d="M405.337,469.568c0,9.958,8.074,18.032,18.013,18.032h6.62c9.975,0,18.032-8.074,18.032-18.032v-49.86h-42.665
		V469.568z" style="fill: rgb(75, 75, 75);"></path>
</g>
</svg>
